<?xml version="1.0" encoding="UTF-8"?>
<!DOCTYPE svg PUBLIC "-//W3C//DTD SVG 1.1//EN" "http://www.w3.org/Graphics/SVG/1.1/DTD/svg11.dtd">
<!-- Creator: CorelDRAW 2019 (64-Bit) -->
<svg xmlns="http://www.w3.org/2000/svg" xml:space="preserve" width="195.824mm" height="205.276mm" version="1.1" style="shape-rendering:geometricPrecision; text-rendering:geometricPrecision; image-rendering:optimizeQuality; fill-rule:evenodd; clip-rule:evenodd"
viewBox="0 0 195.5665 205.0069"
 xmlns:xlink="http://www.w3.org/1999/xlink"
 xmlns:xodm="http://www.corel.com/coreldraw/odm/2003">
 <defs>
  <style type="text/css">
   <![CDATA[
    .fil1 {fill:#00A2DF}
    .fil2 {fill:#40738C}
    .fil4 {fill:#EF3340}
    .fil3 {fill:#FFF100}
    .fil5 {fill:black}
    .fil0 {fill:white}
   ]]>
  </style>
 </defs>
 <g id="Layer_x0020_1">
  <metadata id="CorelCorpID_0Corel-Layer"/>
  <g id="_726323504">
   <path class="fil0" d="M76.8676 99.7341c-0.8723,0.9573 -1.7023,1.9517 -2.4878,2.9815 -1.0861,1.3174 -2.7074,3.9364 -3.6177,5.7397 0,0 -0.2947,0.5806 -0.3352,0.665 -1.2942,2.6881 -2.2942,5.508 -2.9815,8.4112 -0.1896,2.0129 -0.1616,4.0405 0.0838,6.0468 0.5114,-4.755 1.9148,-9.3714 4.1358,-13.607 0.1057,-0.202 0.217,-0.3989 0.3273,-0.597 0.8184,-1.4825 1.7455,-2.9022 2.773,-4.2476 0.7942,-1.0315 1.6383,-2.0224 2.5311,-2.9689l0.0068 -0.0084c0.0887,-0.4014 0.1852,-0.8043 0.285,-1.2056 0.2329,-0.9472 0.5079,-1.8838 0.8248,-2.8058l-0.0006 0.0006c-0.5297,0.5177 -1.0446,1.0498 -1.5447,1.5955z"/>
   <path class="fil1" d="M143.2203 42.0106l-0.1472 -0.0044c-0.6394,-0.019 -1.2792,-0.0293 -1.9192,-0.0293 -3.5529,0 -6.4928,0.2923 -7.929,0.4662l-0.3983 0.0482 -0.3644 -0.1666c-4.711,-2.2301 -9.6236,-2.9768 -9.6236,-2.9768l-0.2927 -0.6064c-4.4395,-9.2036 -12.2525,-22.9139 -24.2679,-35.9841 -1.3112,-1.3196 -2.0744,-2.0458 -2.8976,-2.7575 -0.3642,1.1134 -0.7009,2.2344 -1.0105,3.364 -0.9338,3.1419 -1.5955,7.2453 -1.4659,14.2188 0.0555,3.0002 -0.3785,10.9659 -3.909,17.2818 -2.115,3.7834 -5.459,6.9078 -10.7958,10.5217l-0.0478 0.0307c-0.41,0.2543 -2.0477,1.2802 -2.4593,1.5198 -2.523,1.4876 -5.9594,3.5467 -8.6698,5.5722 -8.4181,6.2881 -14.3125,13.6196 -18.1942,21.3343 -8.1716,2.18 -16.6592,5.2484 -25.0204,9.4884l0.0315 -0.0063c21.2015,-6.8967 43.4195,-7.725 59.9469,-7.004 4.5079,-2.61 9.2384,-4.7688 13.8993,-6.482 -6.5389,-0.9229 -17.5229,-1.2969 -30.5454,0.3968 -1.7468,0.2273 -3.5296,0.4909 -5.3437,0.7958 -3.3124,0.5537 -6.6039,1.2268 -9.8673,2.0185l-0.1215 0.0314c1.9875,-3.6043 4.3622,-6.9808 7.0805,-10.0713 3.8823,-4.4475 8.6284,-8.5099 14.3662,-12.0814l0.0046 -0.0044c1.5529,-1.0172 3.1288,-1.9977 4.7266,-2.9432 2.0373,-1.2231 5.4321,-3.0571 9.5346,-7.425 0.6758,-0.7175 1.2947,-1.4876 1.8506,-2.3016 2.1282,-3.1258 2.4792,-4.1882 2.7846,-4.7465 2.651,-6.1478 2.9867,-11.9858 2.9685,-17.2291l-0.0024 -0.8696c-0.0018,-0.8666 -0.0018,-1.7258 0.0171,-2.5836 0.0616,-2.8642 0.3295,-5.7329 1.4106,-8.9332 0.6935,0.7555 1.3739,1.5124 2.039,2.2709 2.6634,3.0352 5.106,6.1011 7.3352,9.1231 1.9066,2.5837 3.7291,5.2301 5.4657,7.9322 0.2392,0.3712 0.4623,0.7336 0.6953,1.1033 0.3463,0.5436 0.665,1.0492 0.8438,1.337 3.096,5.0124 5.9068,10.1958 8.4192,15.5239 1.0148,0.1856 1.9369,0.3785 2.7912,0.5742 4.7421,1.0902 7.1286,2.2797 8.3472,2.8891l0.003 0.0015c0,0 4.8607,-0.7643 10.8847,-0.5437l1.72 -0.3098 5.86 -1.0565 35.0401 -6.3218 7.723 -1.9772 1.8501 -1.8062 -52.3463 9.3775zm-97.6032 49.1895l0 0c-1.3003,7.3061 -3.0659,24.5487 5.3376,39.4202 -7.5975,-12.1007 -11.3667,-31.3502 -5.131,-49.616 0.7907,-0.0392 1.6002,-0.0746 2.4233,-0.1073l0.0224 -0.0005c-0.7268,2.0013 -1.3381,4.0432 -1.8309,6.1148 -0.3287,1.3883 -0.5986,2.7862 -0.8214,4.1888z"/>
   <path class="fil2" d="M186.0986 36.4107c0,0 -35.2942,12.9197 -43.0575,15.8541 -7.764,2.9358 -7.579,10.2406 -7.579,10.2406l0.5903 -0.0362 14.5751 -0.8846c1.8909,-0.1251 3.7892,-0.1416 5.683,-0.0491 0.0278,0.0022 0.0614,0.0022 0.0892,0.0028 0.3713,0.0206 0.7117,0.0508 1.0581,0.0793 0.1739,0.0144 0.3609,0.0235 0.529,0.0406 1.4129,0.1375 2.604,0.342 3.6182,0.5731 0.0672,0.0148 0.1446,0.0291 0.2104,0.0444 3.1637,0.7501 4.4029,1.7571 4.4029,1.7571l-27.3775 2.9295 -8.6476 8.4084 -0.0398 0.0393 -0.0367 0c-18.9513,-0.1354 -55.3584,11.7991 -61.8904,37.7488 -0.3055,1.1644 -0.5337,2.3472 -0.6841,3.5413 -0.0055,0.0456 -0.0529,0.3437 -0.1015,0.8541l0.0062 -0.023c0.6873,-2.9033 1.6875,-5.7232 2.9816,-8.4112 0.0822,-0.1679 0.1661,-0.3333 0.2518,-0.4994l0.0422 -0.0823 -0.0422 0.0823 -0.0698 0.1381 0.1537 -0.3037c0.9099,-1.8032 2.531,-4.4223 3.6185,-5.7397 0.7838,-1.0309 1.6138,-2.0259 2.4876,-2.9815 0.5007,-0.5457 1.0156,-1.0778 1.5443,-1.5961l0.0012 -0.001c6.1272,-6.0463 13.8934,-10.1501 19.2444,-12.6298 5.7203,-2.6516 11.9156,-4.7562 17.8498,-6.1445 5.1268,-1.1999 10.0594,-1.8665 14.3127,-1.8665l0.008 0 1.168 0.0091 9.3131 -9.1055 30.4281 -3.2737c-2.8511,-2.1332 -8.2479,-5.0586 -16.5525,-5.2236 -1.0991,-0.0201 -2.2652,0.0332 -3.6769,0.1209l-12.4122 0.7582 0.6746 -1.9948c0.7821,-2.3104 2.6538,-4.2204 5.0079,-5.1103 7.3712,-2.7853 44.9672,-16.614 48.6293,-17.9613l1.3064 -1.2743 -7.723 1.9757 0.1052 -0.0058z"/>
   <path class="fil1" d="M100.3185 167.1919c-0.239,-1.6064 -0.4776,-2.9906 -0.7112,-4.2049 -0.3447,0.0446 -0.7283,0.1393 -1.1365,0.2734l0.0096 0.0571 0.109 0.7017c0.1953,1.2494 0.6315,4.0375 1.1891,7.8083l0.814 -2.7292c-0.0884,-0.6353 -0.1803,-1.2712 -0.274,-1.9065z"/>
   <polygon class="fil3" points="70.7208,108.5369 70.6787,108.619 70.6044,108.7652 70.553,108.8684 70.6091,108.7571 70.6787,108.619 "/>
   <path class="fil2" d="M110.1586 183.6851c0.0359,1.0778 0.108,2.1532 0.2169,3.2253 0.1426,1.3648 0.3448,2.7234 0.6045,4.0717 0.6811,3.5083 1.6217,6.1668 2.2599,7.7204 0.3704,0.9448 1.0155,2.1419 1.0155,2.1419l0.0103 0.0195c1.4962,1.4978 3.1472,2.8353 4.8875,4.1191l0.0839 0.024 -2.8756 -5.1849 -0.7902 -1.4803c-0.1307,-0.2557 -3.0094,-6.0166 -3.4588,-14.7675 -0.5975,0.0707 -1.1874,0.1198 -1.7546,0.1198 -0.0669,-0.0022 -0.1326,-0.0079 -0.1993,-0.0091zm32.666 -61.4253l0 0 0.0012 0.0012 0.0006 0.0011 -0.5801 0.2312 -0.0331 0.0143 -0.279 0.1096 -0.0553 0.0224c-0.0662,0.0279 -0.1912,0.0803 -0.3683,0.1609l-0.3043 0.1398c-1.2907,0.6091 -4.1686,2.112 -7.5653,4.8111 -0.4698,0.3745 -0.9321,0.7585 -1.3866,1.1513 -2.5823,2.3131 -5.9148,6.0372 -6.1987,6.3444 -5.5478,5.9818 -12.1747,14.433 -12.2522,14.5409 -0.4687,0.6489 -0.6508,1.0777 -0.7702,1.653 -0.0314,0.1788 -0.0547,0.359 -0.0696,0.5407 -0.0172,0.3008 -0.0456,0.7838 -0.0976,1.3362l1.8647 0c0.0725,-0.6626 0.1188,-1.3169 0.1537,-1.9123l0.0044 -0.077c0.0698,-0.3853 0.1686,-0.5389 0.5624,-1.0469 0.9482,-1.2268 3.2333,-4.0911 5.2079,-6.5166 3.248,-3.654 6.0079,-6.8387 8.5824,-9.6979 6.3454,-7.0464 13.1367,-10.2436 13.1984,-10.27l4.7575 -2.0549 0.741 -0.2471 -0.0089 -0.0024c-1.5065,0.1432 -3.5043,0.3375 -5.0548,0.757 -0.0173,0.0022 -0.0338,0.0063 -0.0503,0.0102zm-7.7301 -67.518l0 0c-8.7397,2.9037 -10.1135,8.4045 -10.1135,8.4045l6.6175 -0.4046c0.7479,-6.4188 3.496,-8 3.496,-8z"/>
   <path class="fil1" d="M100.0936 16.2676c0.0069,0.4281 0.0063,0.8593 0.0177,1.0229 0.8576,12.2783 -3.4801,21.2683 -7.2652,26.3714 5.7583,-2.458 13.0199,-4.479 21.3432,-4.5331 -2.668,-5.2155 -7.4932,-13.9119 -14.0957,-22.8611zm-23.3264 104.7266l0 0c3.446,18.5008 16.6805,24.6264 17.7313,25.0381 4.6505,1.9676 8.0064,0.492 8.8427,-0.1171 1.2417,-0.7729 2.5775,-1.826 3.8236,-2.9294l7.5063 -6.6321 5.6679 -4.9239 1.0572 -0.9169c0.79,-0.6861 1.5982,-1.3517 2.4226,-1.9968 1.4121,-1.1101 2.8867,-2.1388 4.416,-3.0807 0.2295,-0.1405 0.4555,-0.2756 0.6792,-0.4064 3.8041,-2.22 6.8186,-3.0802 8.9735,-3.3474 3.1939,-0.424 4.932,0.5747 4.9368,0.5776l0.0507 -0.0126c1.5498,-0.4195 3.5482,-0.613 5.0548,-0.7569l-0.2717 -0.101c-0.7321,-0.2695 -1.4642,-0.5366 -2.1994,-0.7998 -2.1637,-0.7379 -4.2876,-1.1445 -5.9828,-1.1445 -5.8868,0 -12.5254,3.1693 -19.7334,9.4188 -2.8548,2.4763 -11.8528,10.863 -11.943,10.948l-0.4037 0.3739c-1.7622,1.6452 -5.0428,4.7083 -8.1314,4.7272 -2.0396,0 -5.4276,-0.8974 -8.0498,-2.8673 -7.441,-5.5874 -11.7176,-13.4666 -13.6459,-25.5506 -0.4751,-2.7325 -1.07,-5.992 -1.0373,-9.617 -0.0714,0.6217 -0.1359,1.2781 -0.1883,1.9728 -0.3049,3.3287 -0.3603,7.5785 0.424,12.144z"/>
   <path class="fil4" d="M162.8867 110.0536l0.0219 -0.0245 0.0087 -0.0304c0.2354,-0.7238 0.2661,-1.2238 0.2966,-1.7068 0.0089,-0.1713 0.1872,-1.8746 0.1872,-1.8746l-0.4633 1.2787c-0.3902,1.0799 -0.8666,1.6782 -1.4569,1.8278 -0.0936,0.0262 -0.1901,0.0398 -0.2863,0.0422l-0.1886 0.0022 0.0278 0.1862c0.016,0.0965 0.3404,2.3724 -2.0649,3.9028l-0.0687 0.0444 -0.006 0.0823c-0.0232,0.371 -0.0671,0.7763 -0.1358,1.2757l-0.0482 0.342 0.2938 -0.1815c0.4311,-0.2644 0.8314,-0.5526 1.191,-0.8562 1.3326,-1.1212 2.0444,-2.4039 2.0692,-3.7162 0.1168,-0.0874 0.3594,-0.2836 0.6226,-0.5942zm-1.7288 6.5594l0 0c-0.3449,0.2438 -0.6284,0.4151 -0.7585,0.4899 -0.1562,1.3111 -1.6966,2.3879 -2.6158,2.9192l-0.3813 0.2204 0.1461 -0.4151c0.1927,-0.5463 0.3696,-1.0988 0.5303,-1.656l0.0176 -0.062 0.0555 -0.0333c0.0922,-0.0553 0.1813,-0.1186 0.282,-0.1991 0.7526,-0.6097 0.7629,-1.3969 0.7629,-1.4299l0 -0.1154 0.1081 -0.0381c1.0859,-0.3865 2.0855,-1.9911 2.553,-2.9142l0.6487 -1.3877 -0.4296 1.5458c-0.263,0.9905 -0.5319,1.9677 -0.8577,2.9924l-0.0175 0.0519 -0.0439 0.0314zm-2.078 5.7205l0 0 0.022 -0.0548c0.358,-0.8505 0.8592,-2.3291 1.2376,-3.4017 -0.4192,0.7432 -1.4072,1.8434 -3.364,2.6002l-0.0658 0.0252 -0.0262 0.0639c-0.2602,0.6263 -0.5145,1.1964 -0.779,1.7456l-0.1724 0.363 0.377 -0.1399c0.1578,-0.0593 1.5782,-0.5901 2.7166,-1.1742l0.0541 -0.0273zm-10.7366 13.757l0 0 0.0453 -0.0057 0.0351 -0.0274c0.9513,-0.7398 1.8734,-1.5173 2.762,-2.3318l0.3843 -0.3521 -0.5158 0.0713c-0.5743,0.0793 -1.1209,0.1209 -1.6295,0.1249l-0.0672 0.0006 -0.0466 0.049c-0.782,0.806 -1.5987,1.5784 -2.4478,2.3142l-0.3624 0.3151 0.4794 -0.0297c0.4207,-0.0274 0.8796,-0.0707 1.3633,-0.1284zm4.6793 -4.1705l0 0 0.0322 -0.0343c0.8358,-0.8836 1.6074,-1.7952 2.2942,-2.7102l0.3319 -0.4424 -0.5204 0.1917c-0.8607,0.3186 -1.7039,0.5606 -2.5017,0.7193l-0.0658 0.0138 -0.0365 0.0536c-0.5802,0.8255 -1.1998,1.6218 -1.8589,2.3861l-0.2791 0.3249 0.4253 -0.0583c0.7189,-0.1004 1.4319,-0.2454 2.1334,-0.4327l0.0454 -0.0114zm-7.0035 5.431l0 0c-0.2803,0 -0.5429,-0.0079 -0.7815,-0.0251l-0.0623 -0.0046 -0.0491 0.0388 -0.0626 0.0479 -0.0554 0.0427c-2.4147,1.8718 -6.486,4.3778 -9.6004,5.9846 1.0476,-0.4228 6.2959,-2.6076 10.8575,-5.7888l0.4326 -0.303 -0.5276 0.0056 -0.1512 0.0017zm10.8028 -10.3526l0 0 0.0235 -0.0412c0.5276,-0.8745 0.9923,-1.7845 1.3928,-2.7233l0.1927 -0.4555 -0.4266 0.2511 0 0.0006 -3.2426 1.8712 -0.1039 0.0599c0,0 -0.0438,0.1238 -0.0936,0.2437 -0.2586,0.6052 -0.5552,1.1925 -0.8898,1.7594l-0.2076 0.3607 0.3975 -0.1233c1.0012,-0.315 1.9773,-0.7101 2.9154,-1.1827l0.0423 -0.0205zm-74.2609 -19.5564l0 0c-0.1517,-2.9107 -0.5406,-4.6722 -0.5447,-4.6882l-0.0428 -0.1792 -0.1717 0.065 -1.8649 0.701 -0.1347 0.0508 0.0338 0.1399c0.0029,0.0136 0.3486,1.9578 0.4337,4.558l0.0108 0.3021 0.0018 0.0542 0.0337 0.0427 0.1804 0.2232c0.0202,0.024 1.9017,2.3764 2.853,5.69l0.049 0.1713 2.2184 -0.8539 -0.041 -0.144c-0.8923,-3.1017 -2.4969,-5.4321 -3.0146,-6.133zm3.4101 -0.041l0 0 -0.3167 -0.2683 -0.0599 -0.0501 0.0015 -0.0777 0.0104 -0.4418c0.0325,-1.5407 -0.3848,-3.5877 -0.741,-5.0335l-0.0342 -0.1359 0.1285 -0.0536 1.8773 -0.7872 0.1759 -0.0742 0.0457 0.185c0.3568,1.4327 0.7883,3.4963 0.8311,5.2413 0.6935,0.6993 2.2849,2.5403 3.1401,5.4446l0.0422 0.142 -2.1833 0.8837 -0.0508 -0.1724c-0.9162,-3.1173 -2.8479,-4.7854 -2.8668,-4.8019zm8.2396 2.683l0 0 0.049 0.1786 2.1486 -0.8956 -0.0399 -0.1392c-0.8499,-2.953 -2.5209,-4.7625 -3.2599,-5.4492 0.1136,-2.7177 -0.7976,-5.0203 -0.983,-5.4577l-0.064 -0.1506 -0.1514 0.0651 -1.9697 0.8961 0.0632 0.141c0.011,0.0234 1.048,2.3701 0.793,4.9866l-0.0504 0.5453 -0.0078 0.0913 0.073 0.0542 0.4179 0.3134c0.0206,0.0143 2.0994,1.6195 2.9816,4.8208zm5.6093 -2.2605l0 0c-0.9207,-3.187 -3.0446,-4.5889 -3.067,-4.6043l-0.5509 -0.351 -0.0907 -0.0577 0.0177 -0.1061 0.1091 -0.644c0.4356,-2.5835 -0.7171,-5.0809 -0.7283,-5.1061l-0.0692 -0.1461 0.1467 -0.0697 1.7782 -0.8476 0.1461 -0.0697 0.071 0.1479c0.0535,0.1112 1.287,2.7365 1.0102,5.7751 0.9161,0.7752 2.506,2.4442 3.3663,5.2259l0.0439 0.1421 -0.1376 0.057 -1.994 0.83 -0.0514 -0.1758zm5.3055 -2.2298l0 0 0.0359 0.1588 2.1675 -0.8094 -0.0349 -0.1387c-0.7182,-2.853 -2.2862,-4.5175 -3.2092,-5.287 0.589,-3.1156 -0.6298,-5.9321 -0.6823,-6.0513l-0.066 -0.1497 -0.1491 0.0663 -1.8021 0.7946 -0.1484 0.0651 0.0644 0.149c0.0115,0.0268 1.1407,2.6817 0.3894,5.2803l-0.2147 0.7385 -0.0348 0.1222 0.1102 0.064 0.6638 0.3869c0.0217,0.0132 2.1687,1.3119 2.9103,4.6105zm5.2814 -2.0864l0 0c-0.5731,-3.3118 -2.6498,-4.4883 -2.7372,-4.5356l-0.7866 -0.4169 -0.1308 -0.0695 0.0571 -0.1377 0.3409 -0.819c1.0732,-2.6436 -0.044,-5.4367 -0.0555,-5.4647l-0.0615 -0.1506 0.1508 -0.0617 1.8221 -0.7489 0.1511 -0.0617 0.0622 0.1507c0.0519,0.1278 1.2587,3.1248 0.3574,6.3295 0.9092,0.7489 2.426,2.3765 3.0186,5.2299l0.0285 0.1369 -2.1898 0.7804 -0.0273 -0.161zm5.2836 -2.0184l0 0 0.0199 0.1617 0.1618 -0.0206c0,0 1.3922,-0.4241 1.9334,-0.6085l0.1294 -0.0446 -0.0215 -0.1357c-0.4596,-2.9005 -1.9392,-4.5154 -2.844,-5.2546 1.2118,-3.2875 0.0159,-6.4711 -0.0361,-6.6068l-0.0587 -0.1518 -0.152 0.0593 -1.8386 0.7067 -0.1518 0.0581 0.0576 0.1519c0.012,0.0291 1.1125,2.9907 -0.2727,5.665l-0.4683 0.9026 -0.0775 0.1489 0.1517 0.0725 0.9179 0.4378c0.0212,0.0125 2.1309,1.0887 2.5494,4.4581zm5.2876 -1.7255l0 0c-0.2699,-3.4028 -2.3283,-4.4525 -2.4111,-4.4948l-1.0115 -0.4704 -0.1692 -0.0781 0.1007 -0.1576 0.6005 -0.9397c1.6857,-2.6898 0.6125,-5.851 0.6009,-5.8819l-0.0536 -0.153 0.1519 -0.0542 2.0282 -0.6696 0.0508 0.1485c0.1238,0.3647 1.161,3.6241 -0.3099,6.8573 0.8874,0.7456 2.3157,2.3674 2.6646,5.2724l0.0159 0.1364 -0.1312 0.0394c-0.6354,0.1896 -1.2748,0.3858 -1.9157,0.5884l-0.1951 0.0611 -0.0162 -0.2043zm5.2535 -1.5208l0 0 0.0188 0.1907 0.1845 -0.0479c0.6485,-0.1696 1.2957,-0.3312 1.9231,-0.4813l0.1421 -0.0342 -0.0183 -0.1445c-0.3436,-2.7514 -1.6742,-4.4811 -2.4992,-5.3115 1.5904,-2.8627 1.0801,-5.7987 0.7828,-6.9387l-0.0398 -0.1529 -0.1536 0.0349c-0.6154,0.1387 -1.2615,0.2927 -1.9205,0.4583l-0.1608 0.04 0.0428 0.1597c0.2128,0.789 0.7705,3.5496 -0.978,5.9408l-0.6136 0.8386 -0.1016 0.138 0.1437 0.0937 0.8696 0.5681c0.0212,0.0132 2.0658,1.4048 2.3781,4.6482zm5.1917 -1.0697l0 0 0.0064 -0.1632c0.1341,-3.4531 -1.8571,-4.4565 -1.8758,-4.4651l-1.1692 -0.5463 -0.1933 -0.0902 0.1381 -0.1628 0.8356 -0.9835c2.1082,-2.4819 1.4573,-5.6519 1.3763,-6.0052l-0.0393 -0.1695 0.1724 -0.028c0.6758,-0.109 1.3358,-0.2044 1.9603,-0.2831l0.15 -0.0183 0.0304 0.1478c0.1804,0.8927 0.6205,3.9975 -1.1776,6.8581 0.9813,0.9201 2.096,2.5921 2.0909,5.4373l0 0.1393 -0.1376 0.021c-0.6062,0.0949 -2.1674,0.3117 -2.1674,0.3117zm5.6046 -0.6364l0 0 0.1962 -0.015c0.6638,-0.0502 1.3301,-0.0839 1.9791,-0.0994l0.1473 -0.0033 0.0113 -0.1467c0.225,-2.8395 -0.847,-4.7198 -1.5657,-5.6394 1.7844,-2.301 1.6892,-5.0308 1.4694,-6.4664l-0.0206 -0.1347 -0.1363 -0.0034c-0.6685,-0.0189 -1.3376,-0.0189 -2.006,0l-0.1936 0.0046 0.0384 0.1901c0.1659,0.8238 0.548,3.6609 -1.4996,5.5908l-0.849 0.7871 -0.142 0.1313 0.1535 0.1181 0.9186 0.7039c0.0753,0.0599 1.879,1.539 1.5212,4.7871l-0.0222 0.1952zm7.926 -11.697l0 0 -0.0171 -0.1108 -0.1087 -0.024c-0.6993,-0.153 -1.4042,-0.2797 -2.1132,-0.3797l-0.2465 -0.0348 0.0673 0.2402c0.2153,0.7696 0.7495,3.4114 -1.423,5.0886l-0.8036 0.6205 -0.1333 0.1027 0.107 0.1291 0.6433 0.7849c0.0161,0.0194 1.6371,2.0584 1.2844,5.0586l-0.0193 0.169 0.1688 0.0131c0.6576,0.0509 1.3118,0.1261 1.9442,0.225l0.1667 0.0263 0.0196 -0.1679c0.3173,-2.6869 -0.5766,-4.7893 -1.1835,-5.8625 1.9763,-2.1091 1.8119,-4.8064 1.647,-5.8784zm1.0496 12.2141l0 0 0.177 0.0434c0.6533,0.1626 1.2816,0.3543 1.872,0.5697l0.1535 0.0559 0.0555 -0.1542c0.7321,-2.047 0.748,-4.2813 0.0467,-6.3391 0.732,-0.9214 1.6453,-2.385 1.4935,-4.5965l-0.0118 -0.1437 -0.0029 -0.0479 -0.0088 -0.0967 -0.0892 -0.0392c-0.6737,-0.2946 -1.378,-0.5624 -2.0925,-0.7947l-0.2543 -0.0822 0.0423 0.2638c0.0629,0.391 0.1052,0.7718 0.1286,1.132 0.0804,1.2182 -0.4486,2.5669 -1.2876,3.2794l-0.5864 0.5052 -0.0964 0.0832 0.0565 0.1132 0.3442 0.6901c0.0501,0.0999 1.2056,2.4701 0.1226,5.3876l-0.0628 0.1707zm3.7265 1.334l0 0 0.0731 -0.1433c1.3504,-2.6664 0.5685,-5.0833 0.535,-5.1839l-0.2674 -0.7911 -0.0439 -0.1301 0.1199 -0.0651 0.7379 -0.3973c0.7087,-0.3779 1.1441,-0.8859 1.3313,-1.5527 0.165,-0.5902 0.149,-1.3004 -0.0497,-2.1126l-0.0979 -0.4019 0.3448 0.2255c0.7467,0.488 1.4613,1.0224 2.1408,1.6l0.0614 0.0518 -0.0029 0.08c-0.0206,0.4117 -0.0834,0.8043 -0.1827,1.1669 -0.2733,0.9931 -0.8711,1.8665 -1.6996,2.4802 0.3857,2.1114 0.0526,4.2915 -0.944,6.193l-0.0849 0.1638 -0.1519 -0.1055c-0.5276,-0.3659 -1.0902,-0.7034 -1.6747,-1.0037l-0.1448 -0.0741zm7.4281 -6.334l0 0 -0.1418 -0.1639 -0.2235 -0.2598 -0.0599 0.3374c-0.0264,0.1513 -0.0644,0.2992 -0.1141,0.4441 -0.2586,0.7552 -0.8242,1.3182 -1.7332,1.7233l-0.7 0.3134 -0.127 0.0565 0.0351 0.1336 0.1973 0.742c0.0057,0.0236 0.6021,2.4751 -1.2436,5.0918l-0.082 0.1171 0.1039 0.097c0.4311,0.3986 0.852,0.8409 1.2509,1.317l0.1316 0.1564 0.124 -0.1627c1.9217,-2.53 2.0314,-5.0096 1.9101,-6.3146 1.4832,-1.269 1.5461,-1.8975 1.5869,-2.3148l0.0088 -0.0799 0.0073 -0.0633 -0.0365 -0.0514c-0.2776,-0.3893 -0.5758,-0.7632 -0.8943,-1.1193zm2.4725 3.4665l0 0c0.3083,0.5047 0.4501,0.7341 0.7847,1.3901l0.022 0.0421 -0.0044 0.0464c-0.1096,1.2123 -0.5598,2.0468 -1.3752,2.5469 0.1184,1.1738 -0.0876,3.3474 -2.5412,5.4463l-0.1563 0.1336 -0.095 -0.1822c-0.2559,-0.4943 -0.5363,-0.9773 -0.8331,-1.4345l-0.0745 -0.1153 0.1009 -0.0924c2.2213,-2.0532 1.6177,-3.6983 1.565,-3.9753 -0.0526,-0.2756 -0.3025,-0.8025 -0.3025,-0.8025l-0.0599 -0.1599 0.9777 -0.3196c1.2625,-0.5406 1.4145,-1.1846 1.565,-2.6583l0.0496 -0.4803 0.2515 0.4117 0.1256 0.2031z"/>
   <path class="fil4" d="M161.5481 99.2402l-0.1754 -0.3846 -0.2573 -0.5686 -0.0539 0.6211c-0.0833,0.9732 -0.3507,2.1703 -1.1457,2.3449l-0.6767 0.1495 -0.1343 0.0293 0.0073 0.1375 0.0335 0.693c0.0016,0.0183 0.0498,2.0743 -2.0766,4.179l-0.0774 0.0758 0.0409 0.1012c0.209,0.5193 0.4078,1.0817 0.5919,1.6731l0.0731 0.2374 0.1885 -0.1626c2.3995,-2.0739 3.0249,-4.275 3.1799,-5.4554 0.5012,-0.2872 1.0491,-1.0297 1.0491,-2.2656l0 -0.0291 -0.0116 -0.0281c-0.1623,-0.4579 -0.3478,-0.9076 -0.5554,-1.3478zm-0.2484 6.1308l0 0c0.1855,-0.0023 0.4618,-0.1187 0.605,-0.2808 0.3302,-0.3803 0.5713,-1.1446 0.6971,-2.2103l0.0774 -0.661 0.2367 0.6216c0.6094,1.6012 0.3843,2.6636 0.0876,3.2727 -0.2205,0.4549 -0.5333,0.754 -0.767,0.8705 -0.2559,1.0931 -1.0624,3.0705 -3.5847,4.6158l-0.2032 0.1243 -0.0423 -0.234c-0.0936,-0.5051 -0.2001,-1.0104 -0.3275,-1.5436l-0.0262 -0.1073 0.0907 -0.0634c2.2782,-1.6087 2.3644,-3.2977 2.4038,-3.5849l0.0278 -0.701 0.0043 -0.1272 0.7206 0.0086z"/>
   <path class="fil5" d="M100.5937 169.0996l1.4826 -4.9674c-0.0178,-0.3665 -0.2312,-0.6834 -0.6063,-0.8963 -0.4151,-0.2345 -1.0485,-0.3533 -1.8627,-0.2489 0.2336,1.2143 0.4731,2.5997 0.7112,4.2049 0.0904,0.605 0.1817,1.245 0.2752,1.9077zm-32.3691 -55.9412l0 0c6.5326,-25.9497 42.9392,-37.8841 61.8904,-37.7494l0.0367 0 0.0399 -0.0393 8.6476 -8.4083 27.3779 -2.9296c-0.0016,-0.0011 -1.2423,-1.007 -4.4031,-1.7571 -0.0672,-0.0147 -0.1447,-0.0291 -0.2105,-0.0443 -1.1939,-0.2677 -2.4008,-0.4591 -3.6182,-0.5731 -0.168,-0.0161 -0.3564,-0.0258 -0.529,-0.04 -0.3462,-0.0286 -0.6882,-0.0599 -1.0579,-0.0794 -0.0294,-0.0022 -0.0614,-0.0022 -0.0906,-0.0028 -1.8925,-0.0925 -3.7908,-0.0766 -5.6818,0.0491l-14.5758 0.8848 -0.5898 0.0354c0,0 -0.186,-7.3051 7.579,-10.2394 7.7635,-2.9358 43.052,-15.8541 43.0579,-15.8556l-35.1483 6.3291 -5.8591 1.055 -1.7205 0.3099c-6.023,-0.2207 -10.8841,0.5436 -10.8841,0.5436 -1.2182,-0.6094 -3.6048,-1.8003 -8.3495,-2.8891 -0.8547,-0.1972 -1.7766,-0.3902 -2.7915,-0.5757 -2.5122,-5.328 -5.3229,-10.51 -8.4192,-15.5224 -0.2722,-0.4398 -0.5611,-0.8928 -0.8432,-1.3385 -0.2323,-0.3682 -0.456,-0.7306 -0.6957,-1.1033 -1.7359,-2.7019 -3.5586,-5.347 -5.4659,-7.9322 -2.3152,-3.1433 -4.7629,-6.1858 -7.3353,-9.1216 -0.6661,-0.7599 -1.3453,-1.5169 -2.0388,-2.2709 -1.0818,3.1989 -1.3487,6.0674 -1.4104,8.9317 -0.0184,0.8579 -0.0184,1.7171 -0.0168,2.5837l0.0018 0.8695c0.0188,5.2433 -0.3167,11.0813 -2.9683,17.2306 -0.3053,0.5583 -0.6554,1.6207 -2.7839,4.7465 -0.5567,0.8139 -1.1748,1.5826 -1.8506,2.3002 -4.1033,4.3694 -7.4981,6.2019 -9.5354,7.4264 -1.5977,0.9441 -3.1738,1.9261 -4.7266,2.9417l-0.0044 0.0044 -0.0766 0.0497 -0.0159 0.0117c-5.6502,3.5277 -10.3857,7.5886 -14.2739,12.0215 -2.7181,3.0904 -5.0923,6.467 -7.0805,10.0713l0.1215 -0.0314c3.4073,-0.8283 6.6256,-1.4728 9.8674,-2.0185 1.5014,-2.0253 3.1511,-3.937 4.9348,-5.7191 1.4723,-1.4124 3.0261,-2.7367 4.6541,-3.9663 10.205,-7.7052 24.4415,-11.8554 39.8116,-12.3333 0.3483,-0.0117 0.7011,-0.0161 1.0511,-0.0219 -18.0648,2.2972 -34.3284,9.2298 -45.1075,21.2437 13.0226,-1.6943 24.0058,-1.3192 30.5448,-0.3962 -4.6608,1.713 -9.3903,3.8713 -13.8992,6.4819 -2.7659,1.5955 -5.4271,3.3656 -7.9673,5.3007 -5.3093,-0.5001 -10.6363,-0.7883 -15.9684,-0.8637 -4.674,8.9969 -6.9363,19.9375 -5.9394,32.9262 -0.9295,-3.6127 -1.4827,-7.3118 -1.6522,-11.0382 -0.3414,-7.7119 0.9813,-15.0769 3.9296,-21.912 -2.7691,0.0063 -5.4131,0.0668 -7.9186,0.1632 -0.7267,2.002 -1.338,4.0439 -1.8311,6.1155 -0.3267,1.3848 -0.6007,2.7822 -0.8209,4.1882 -1.301,7.3067 -3.0667,24.5486 5.3373,39.4202 1.3453,2.3747 2.9163,4.6145 4.6912,6.6878 0.4725,-0.3065 0.9548,-0.5993 1.4493,-0.8825l0.0015 -0.0012c1.7846,-0.9921 3.6825,-1.765 5.652,-2.3026 1.8655,-0.4995 2.2851,-0.5504 2.3022,-0.5521l0.5617 -0.0633c2.0044,-0.4806 4.0581,-0.7255 6.1195,-0.73 3.5545,0.0062 5.089,0.2042 5.089,0.2042 -1.43,1.1697 -2.1532,1.7257 -3.529,2.9878 -2.7759,2.4066 -4.9132,5.7838 -6.3809,10.291 1.6224,0.9738 3.288,1.8736 4.9921,2.6961 -0.6223,-2.1646 0.2013,-4.485 2.0487,-5.7733 0.0359,-0.0309 0.0696,-0.0652 0.1057,-0.0961 0.2721,-0.3846 0.5896,-0.7408 0.9599,-1.0508 0.9876,-0.8249 2.2331,-1.2775 3.5199,-1.278 3.0322,0.0033 5.4896,2.4603 5.4932,5.4926 -0.0012,2.1583 -1.2684,4.1151 -3.2373,4.9999 -0.0907,0.0731 -0.1854,0.1426 -0.2819,0.2106 -0.275,0.2461 -0.5754,0.463 -0.895,0.6473 4.082,1.3751 8.6843,2.502 13.8349,3.1926 0.0568,-0.0349 0.1112,-0.0735 0.1682,-0.1085 0.7862,-0.475 1.5876,-0.8847 2.3839,-1.2187 3.74,-1.5704 7.47,-1.6211 10.5022,-0.1409 0.3688,0.1792 0.7312,0.3864 1.0793,0.6142 0.8376,-0.7187 1.8747,-1.1286 2.8736,-1.1303l2.4079 0c0.0513,-0.5526 0.0798,-1.0355 0.0971,-1.3362 0.0142,-0.181 0.0377,-0.3614 0.0696,-0.5402 0.1198,-0.5758 0.302,-1.0041 0.7706,-1.653 0.0775,-0.1085 6.704,-8.5602 12.2518,-14.5415 0.2836,-0.306 3.6163,-4.0301 6.1988,-6.3443 0.4983,-0.4464 0.9714,-0.8454 1.3864,-1.1514 3.3965,-2.6984 6.2748,-4.202 7.5655,-4.8111 0.1146,-0.053 0.2151,-0.1004 0.3048,-0.1398 0.1764,-0.0804 0.3013,-0.1329 0.3676,-0.1609l0.0552 -0.0224 0.3124 -0.1237 0.5806 -0.2312 -0.0018 -0.0018c-0.0046,-0.0029 -1.7429,-1.0017 -4.9366,-0.5776 -2.156,0.2671 -5.1695,1.1286 -8.9736,3.3474 -0.2238,0.1307 -0.4509,0.2659 -0.6792,0.4064 -1.5293,0.9426 -3.0038,1.9712 -4.4161,3.0807 -0.8241,0.6451 -1.6327,1.3107 -2.4226,1.9968l-1.057 0.9169c-1.0231,0.8876 -5.0522,4.3873 -5.6678,4.9239l-7.5066 6.6321c-1.2473,1.1023 -2.5825,2.1566 -3.8236,2.9294 -0.836,0.608 -4.1921,2.0848 -8.8426,0.1171 -1.0509,-0.4106 -14.2851,-6.5373 -17.7319,-25.0381 -0.7839,-4.5655 -0.7284,-8.8153 -0.4258,-12.1422 0.0531,-0.6948 0.117,-1.3505 0.1885,-1.9728 0.2333,-2.0447 0.5423,-3.6762 0.7677,-4.7236 -0.8921,0.9475 -1.7364,1.9384 -2.5306,2.9694 -1.0274,1.346 -1.9545,2.7658 -2.7736,4.2471 -0.1097,0.1991 -0.2216,0.3966 -0.3267,0.5975 -2.2222,4.2351 -3.6252,8.8515 -4.1361,13.6071 -0.3091,-2.7412 -0.197,-4.8985 -0.0909,-6.0241 0.048,-0.5103 0.0953,-0.8082 0.1017,-0.854 0.1483,-1.1572 0.3704,-2.3381 0.6855,-3.5402zm66.87 -58.4167l0 0c0,0 -2.7481,1.5812 -3.496,8l-6.6175 0.4046c0.001,0 1.3744,-5.5009 10.1135,-8.4045zm-42.2476 -11.0813l0 0c3.7848,-5.103 8.1224,-14.0917 7.2655,-26.3713 -0.012,-0.1637 -0.0108,-0.5948 -0.0177,-1.023 6.6024,8.9492 11.4271,17.6457 14.0962,22.8612 -8.3251,0.054 -15.5866,2.0766 -21.344,4.533zm21.4085 157.1829l0 0c0,0 -0.6451,-1.196 -1.0155,-2.1412 -0.6383,-1.5545 -1.5788,-4.2129 -2.2599,-7.7211 -0.4693,-2.406 -0.7438,-4.8463 -0.8214,-7.297 -1.9129,-0.0389 -3.6304,-0.6325 -5.0211,-1.4408 -0.9938,-0.5719 -1.8739,-1.3209 -2.599,-2.2092l-0.23 0.1427c1.8193,9.6973 4.9811,19.6008 11.9572,20.6866l-0.0103 -0.02z"/>
   <path class="fil4" d="M180.9721 182.2666c-2.5311,-0.0172 -4.8282,-0.6783 -6.6432,-1.9141 -0.4692,-0.3186 -0.9089,-0.6798 -1.3123,-1.0783 -3.0907,1.982 -6.5601,3.0288 -10.0453,3.0288 -3.4853,0 -6.3759,-1.3032 -8.1396,-3.6688 -1.8603,-2.4963 -2.2739,-5.9247 -1.1633,-9.6545l1.3254 -4.2465c0.4195,-1.2551 0.399,-2.216 -0.0554,-2.6406 -0.4998,-0.4657 -1.6061,-0.4783 -2.6904,-0.0303 -0.5144,0.2123 -1.0565,0.5531 -1.5679,0.9852 -0.0396,0.0326 -0.0701,0.0709 -0.1082,0.104 0.0993,-0.0473 0.1826,-0.0833 0.2367,-0.1062 0.8651,-0.3682 1.6864,-0.358 2.0912,0.0223 0.402,0.3767 0.4575,1.2146 0.1477,2.2417l-1.1195 3.675c-1.2363,4.15 -0.7496,7.9924 1.3693,10.8175 0.6007,0.8002 1.3241,1.6593 2.9606,2.5927 1.5097,0.8597 3.2969,1.2957 5.3121,1.2957 3.0732,0 6.5029,-1.007 10.1928,-2.9928 2.0649,2.0166 4.9759,3.1806 8.0345,3.2018l6.5788 0 1.7273 -1.6344 -7.1314 0 0 0.0018zm-47.5045 -1.1828l0 0 5.0963 -16.7552c0.3414,-1.1023 0.2833,-1.9974 -0.154,-2.3964 -0.4481,-0.4092 -1.3579,-0.4173 -2.3188,-0.0189 -0.537,0.2279 -1.0429,0.5247 -1.5031,0.8837 -0.0981,0.0748 -0.1915,0.1553 -0.2858,0.2341 0.8511,-0.3334 1.6428,-0.3357 2.0407,0.0382 0.4019,0.3768 0.4573,1.2147 0.1484,2.2422l-5.282 17.4602 10.7231 0 2.0795 -1.6977 -10.5443 0.0097zm-15.9594 -0.0028l0 0c-4.4457,1.5492 -8.3675,1.4847 -11.3407,-0.1874 -0.8375,-0.4698 -1.5961,-1.0691 -2.2469,-1.7758 -0.2387,0.1758 -0.4812,0.3464 -0.7273,0.5114 -0.2207,0.1485 -0.436,0.27 -0.6546,0.4053 0.725,0.8887 1.6052,1.6372 2.599,2.2097 1.3907,0.8089 3.1082,1.4014 5.0211,1.4408 0.0667,0.0018 0.1324,0.0069 0.1999,0.0069 0.5678,0 1.1569,-0.0491 1.7552,-0.1193 1.2382,-0.1501 2.4592,-0.4183 3.6459,-0.8026l9.6444 0 2.2415 -1.6976 -10.1374 0.0086zm-36.7143 -29.8308l0 0c-0.0361,0.016 -0.068,0.0381 -0.1045,0.0536 -1.6971,0.7194 -3.6414,0.5406 -5.1786,-0.4761 -1.5374,-1.0167 -2.4639,-2.7355 -2.4666,-4.5787 0,-1.1479 0.3636,-2.2456 1.0131,-3.1625 -0.0365,0.0304 -0.0701,0.064 -0.105,0.0961 -1.4128,0.9892 -2.2536,2.6053 -2.253,4.3298 0,0.5004 0.0737,0.9835 0.2042,1.4435 0.6451,2.2772 2.7236,3.8491 5.0902,3.8509 1.2981,0 2.5511,-0.4795 3.5181,-1.346 0.0965,-0.0668 0.1906,-0.1364 0.282,-0.2106zm102.5589 0.4876l0 0c-3.0323,-0.003 -5.4904,-2.4598 -5.4934,-5.4921 0,-1.1681 0.3742,-2.2833 1.0464,-3.211 -0.057,0.0473 -0.1111,0.0988 -0.1666,0.1479 -1.4131,0.9892 -2.2548,2.6053 -2.2534,4.3298 -0.0014,1.4042 0.5569,2.7502 1.5505,3.7435 0.9923,0.9927 2.3381,1.551 3.7426,1.551l0.0014 0c1.2978,0 2.5516,-0.4795 3.5175,-1.346 0.0834,-0.0581 0.1651,-0.1186 0.2426,-0.1821 -0.0131,0.0051 -0.0248,0.0143 -0.0366,0.0194 -0.6795,0.2911 -1.4115,0.4406 -2.151,0.4396z"/>
   <path class="fil4" d="M171.2222 168.4323l3.5803 -11.8585c0.0379,-0.1256 0.0833,-0.2489 0.133,-0.3705l0.0321 -0.0719c0.0555,-0.1233 0.0936,-0.2054 0.1374,-0.286l0.0481 -0.0902c0.06,-0.1033 0.1024,-0.1757 0.149,-0.2477l0.0526 -0.0834c0.44,-0.6467 1.026,-1.1799 1.7113,-1.5561 -1.3811,0.2466 -2.3337,0.8625 -2.9973,1.5794 -0.979,0.9409 -1.324,2.1674 -1.5505,2.9154l-3.5817 11.8585c-0.2397,0.7837 -0.7205,1.5669 -1.384,2.2987 0.0278,-0.0148 0.0555,-0.0256 0.0833,-0.041 1.7508,-0.9898 3.1243,-2.5403 3.5862,-4.0467zm-50.3541 0.2421l0 0 3.7002 -12.1023c0.0372,-0.1187 0.08,-0.238 0.1311,-0.3659l0.0344 -0.076c0.0416,-0.0947 0.0857,-0.1872 0.1331,-0.279l0.0523 -0.0948c0.0584,-0.1027 0.1013,-0.1754 0.1467,-0.2467l0.0754 -0.1141c0.2245,-0.3214 0.4858,-0.616 0.7786,-0.8756 -0.3196,0.13 -0.6256,0.2917 -0.9133,0.4828 -1.4555,0.8627 -2.4216,2.3737 -2.7189,3.3538l-3.7713 12.104c-0.3358,1.0029 -0.9555,1.9962 -1.7435,2.8559 0.0777,-0.0383 0.1558,-0.0686 0.2336,-0.1108 1.765,-0.9516 3.2452,-2.6882 3.8616,-4.5313zm-19.2354 11.8962l0 0c-2.4015,1.3016 -4.9211,1.9952 -7.3094,1.9958 -2.0378,0 -3.8949,-0.4881 -5.5177,-1.4506 -1.0611,-0.6256 -1.9924,-1.4493 -2.7428,-2.4261 -0.2849,0.1873 -0.5857,0.3728 -0.8957,0.5543 -0.2662,0.1536 -0.5355,0.3009 -0.8089,0.4419 0.765,1.0583 1.7393,1.9488 2.8622,2.6156 1.6132,0.9549 3.4558,1.4397 5.4784,1.4397l0.0028 0c2.897,0 5.7151,-0.9442 8.3861,-2.7869 0.1145,-0.0794 0.231,-0.1501 0.3451,-0.2328l0.1999 -0.1508zm-25.2097 1.1417l0 0 -0.0508 -0.0011c-3.7954,-0.024 -7.0532,-1.5087 -8.9364,-4.0712 -1.7701,-2.4083 -2.2081,-5.4955 -1.2296,-8.6916l3.7817 -12.3762c0.0337,-0.1131 0.0777,-0.2347 0.1331,-0.3688l0.0313 -0.0684c0.0554,-0.1256 0.0953,-0.2078 0.1381,-0.2895l0.0504 -0.0902c0.0479,-0.0862 0.0981,-0.1712 0.1512,-0.254l0.058 -0.088c0.2142,-0.3174 0.4687,-0.6057 0.7564,-0.8591 -0.8749,0.3939 -1.6628,0.9584 -2.317,1.6599 -0.7003,0.7073 -1.1166,1.4837 -1.318,2.1498l-3.1803 10.4041c-1.1011,3.6049 -0.5816,7.1053 1.4409,9.8554 2.224,3.026 6.3533,4.6101 9.2836,4.6101 2.2517,0 4.1015,-0.4094 5.8431,-1.3346 1.0685,-0.5114 2.0937,-1.2107 3.131,-2.1246 -2.4964,1.2666 -5.1799,1.938 -7.7668,1.938zm5.9348 -10.3419l0 0c-0.1752,0.1267 -0.3533,0.2456 -0.5347,0.3591 0.3019,-2.4586 1.1399,-4.9878 2.446,-7.3381 1.3441,-2.4221 3.1652,-4.8047 5.738,-6.7667 0.8719,-0.7097 1.8015,-1.3437 2.7799,-1.8958 -2.3131,1.5709 -4.2914,3.5848 -5.8213,5.9253 -1.7216,2.6276 -2.785,5.4983 -3.0762,8.3074 -0.452,0.5292 -0.9665,1.0024 -1.5317,1.4087zm17.2484 -8.3833l0 0c0.814,-0.1045 1.4483,0.0144 1.8632,0.2489 0.3751,0.2129 0.5891,0.5298 0.6063,0.8963l-1.4831 4.9674 -0.814 2.7286 -0.0649 0.218c0.1776,-0.1393 0.3548,-0.2785 0.5286,-0.4337 0.8063,-0.7249 1.5104,-1.558 2.0904,-2.4746l1.5988 -5.2482c-0.1072,-1.205 -0.6234,-1.913 -1.5753,-2.1658 -0.2404,-0.0617 -0.4876,-0.0919 -0.7359,-0.0903 -1.0088,0 -2.2057,0.4527 -3.3709,1.2741 -0.1803,0.1272 -0.356,0.2603 -0.5274,0.3997 -0.1865,0.1501 -0.3491,0.2905 -0.5289,0.4555 -0.0291,0.0268 -0.0549,0.0581 -0.0835,0.085 0.4841,-0.2541 0.9374,-0.4475 1.3602,-0.5856 0.3699,-0.1279 0.7501,-0.2198 1.1366,-0.2752z"/>
   <path class="fil1" d="M188.846 146.2457c-0.003,-3.0322 -2.4611,-5.4904 -5.4932,-5.4937 -1.2861,0.0011 -2.5327,0.4537 -3.5191,1.2792 -0.3491,0.2944 -0.6604,0.6319 -0.9279,1.0035 -0.6781,0.9334 -1.0448,2.0573 -1.0464,3.211 0.003,1.8427 0.9281,3.5614 2.4654,4.5781 1.5374,1.0162 3.4824,1.1948 5.179,0.4756 0.0132,-0.0057 0.0249,-0.0143 0.0366,-0.0201 2.0065,-0.87 3.3041,-2.8473 3.3057,-5.0336zm-5.4932 3.8017l0 0c-2.097,0 -3.8024,-1.7057 -3.8024,-3.8028 0,-2.0967 1.7054,-3.803 3.8024,-3.803 2.0969,0 3.8023,1.7063 3.8023,3.803 0,2.0971 -1.7054,3.8028 -3.8023,3.8028zm-77.714 14.0431l0 0c-0.0765,-2.0847 -1.1148,-3.5419 -2.8508,-4.0009 -0.3807,-0.0994 -0.7728,-0.1485 -1.1664,-0.1467 -3.1383,0 -6.9281,2.9147 -8.7775,6.9688 -1.0025,2.1959 -1.224,4.4005 -0.6063,6.0484 0.3659,0.9779 1.0116,1.7 1.8667,2.087 2.5599,1.1618 6.5975,-0.7352 9.1919,-4.3194 0.2027,-0.2802 0.3956,-0.5698 0.5893,-0.8848l1.7529 -5.7523zm-10.8361 9.4171l0 0c-0.4436,-0.2019 -0.7741,-0.5857 -0.9818,-1.1411 -0.4544,-1.2113 -0.2437,-2.9889 0.5617,-4.7534 0.6227,-1.3676 1.5914,-2.6978 2.728,-3.7662 0.0286,-0.0269 0.0542,-0.0583 0.0829,-0.0851 0.1802,-0.165 0.3429,-0.3048 0.5289,-0.4549 0.1805,-0.1455 0.3586,-0.2802 0.528,-0.4003 1.1646,-0.8208 2.3621,-1.2735 3.3708,-1.2735 0.2616,0 0.5098,0.0304 0.7353,0.0903 0.9526,0.2517 1.4688,0.9601 1.5754,2.1652l-1.5983 5.2482c-0.581,0.9163 -1.2851,1.7485 -2.091,2.4746 -0.1731,0.1552 -0.3506,0.2945 -0.5285,0.4337 -1.7738,1.3952 -3.7275,1.9992 -4.9114,1.4626z"/>
   <path class="fil1" d="M110.4589 153.3177c-0.9983,0.0018 -2.0366,0.4117 -2.8735,1.1298 -0.3465,-0.2272 -0.7068,-0.4327 -1.0795,-0.6138 -3.0323,-1.4802 -6.762,-1.4305 -10.5028,0.141 -0.7956,0.3335 -1.5975,0.7444 -2.3832,1.2182 -0.057,0.0348 -0.1113,0.0742 -0.1684,0.109 -0.2243,0.1383 -0.4459,0.2803 -0.6645,0.4276 -2.3131,1.5709 -4.2914,3.5854 -5.8213,5.9259 -1.7216,2.6264 -2.785,5.4971 -3.0762,8.3073 -0.5955,0.6902 -1.2923,1.2861 -2.0664,1.7673 -1.2188,0.7582 -2.5448,1.1857 -3.7179,1.1857 -0.81,0 -1.4219,-0.2244 -1.7226,-0.632 -0.2877,-0.3876 -0.328,-0.9859 -0.1138,-1.6863l5.247 -17.278 -7.2325 0.0006c-1.0513,0.0012 -2.1336,0.4635 -2.9779,1.2329 -0.2877,0.2536 -0.5418,0.5424 -0.7564,0.8598l-0.0576 0.0874c-0.0537,0.0833 -0.1039,0.1678 -0.1518,0.2546l-0.0503 0.0902c-0.0491,0.0948 -0.0952,0.1912 -0.138,0.2888l-0.0315 0.069c-0.0553,0.1336 -0.0983,0.2552 -0.1331,0.3689l-3.781 12.3762c-0.978,3.1966 -0.5412,6.2825 1.229,8.691 1.8837,2.5636 5.1409,4.0478 8.9369,4.0717l0.0508 0.0006c2.5857,0 5.2704,-0.6714 7.766,-1.9387 0.0208,-0.0108 0.0425,-0.0199 0.063,-0.0297 0.0365,-0.0189 0.0685,-0.0381 0.1051,-0.057 0.5856,-0.3008 1.1542,-0.6336 1.7045,-0.9962 0.7507,0.9768 1.6817,1.7999 2.7429,2.4261 1.6228,0.9625 3.4798,1.4506 5.5176,1.4506 2.389,-0.0006 4.909,-0.6937 7.3096,-1.9958l-0.201 0.1508c-0.1141,0.0827 -0.2312,0.1534 -0.3453,0.2328 1.129,7.9586 2.8518,13.2182 5.5703,17.0053 2.4226,3.3741 5.0587,4.5614 5.5633,4.7647 0.027,0.0125 0.657,0.3144 1.5275,0.6079 2.1,0.7102 4.3384,1.3517 5.4059,1.6508 -1.7405,-1.2838 -3.3903,-2.6218 -4.8876,-4.1191 -6.9772,-1.0852 -10.1392,-10.9887 -11.9573,-20.686 0.0765,-0.0457 0.1537,-0.0959 0.23,-0.1433 0.2186,-0.1347 0.434,-0.2568 0.6543,-0.4053 0.2604,-0.1747 0.4993,-0.3425 0.7276,-0.5114 0.6508,0.7067 1.4094,1.306 2.2469,1.7758 2.9735,1.6721 6.8951,1.7365 11.3409,0.1874l10.1363 -0.0086 4.6518 -15.242c0.2419,-0.9082 1.0007,-1.9551 2.007,-2.8005 0.0937,-0.0788 0.1872,-0.1587 0.2853,-0.2339 0.4607,-0.3586 0.966,-0.656 1.5036,-0.8837 0.9596,-0.3974 1.87,-0.3893 2.3182,0.0189 0.4373,0.399 0.4954,1.2946 0.1546,2.3968l-5.0963 16.7546 10.5446 -0.0114 4.5421 -14.9188 0.0148 -0.0507c0.2645,-0.9893 1.0126,-2.0802 2.0035,-2.9513 0.038,-0.0331 0.0685,-0.0713 0.1082,-0.1033 0.5114,-0.4321 1.0535,-0.773 1.5679,-0.9859 1.0843,-0.448 2.1905,-0.4354 2.6904,0.0303 0.4544,0.4252 0.475,1.3861 0.0554,2.6408l-1.3254 4.2463c-1.1106,3.7299 -0.697,7.1589 1.1633,9.6547 1.7637,2.3654 4.6543,3.6693 8.1396,3.6693 3.4852,0 6.9546,-1.0463 10.0453,-3.029 0.4018,0.3968 0.8431,0.7588 1.3123,1.0784 1.815,1.2353 4.1121,1.8969 6.6432,1.9135l7.1328 0 2.6846 -8.7959 -8.0417 0c-0.8097,0 -1.4219,-0.2255 -1.7244,-0.6331 -0.2864,-0.3877 -0.3273,-0.9864 -0.1127,-1.6874l5.4203 -17.8432 -7.2307 0.008c-0.6913,0.0012 -1.3927,0.2009 -2.0358,0.5543 -0.6838,0.3773 -1.2697,0.9098 -1.7098,1.5561l-0.0539 0.0834c-0.0468,0.072 -0.0893,0.1444 -0.1477,0.2477l-0.0497 0.0902c-0.0422,0.0806 -0.0803,0.1627 -0.1358,0.286l-0.0321 0.0719c-0.0542,0.1308 -0.098,0.2512 -0.133,0.3705l-3.5818 11.8585c-0.4604,1.5064 -1.8339,3.0569 -3.5847,4.0467 -0.0292,0.0155 -0.0569,0.0263 -0.0833,0.041 -1.1061,0.6097 -2.2767,0.9495 -3.3056,0.9495 -0.206,0 -0.5727,-0.0327 -0.732,-0.2462 -0.2368,-0.3213 -0.206,-1.1295 0.0789,-2.059l1.375 -4.4942c1.6529,-5.4514 0.5584,-10.0552 -2.9284,-12.3134 -2.002,-1.2981 -4.5418,-1.6571 -7.3432,-1.0384 -2.1629,0.4779 -4.4526,1.5652 -6.636,3.1494 -1.1281,-1.482 -2.81,-2.5768 -4.757,-3.0968 -2.2942,-0.6113 -4.8927,-0.4469 -7.3665,0.4602l0.1546 -0.5144 -7.2275 0.0011c-1.04,0.0006 -2.1062,0.4504 -2.9449,1.2023 -0.2934,0.2597 -0.5549,0.5537 -0.7786,0.8756l-0.0754 0.1141c-0.0514,0.0806 -0.1004,0.1627 -0.1467,0.2467l-0.0523 0.0948c-0.0474,0.0919 -0.0915,0.185 -0.1331,0.279l-0.0344 0.076c-0.049,0.1198 -0.0925,0.242 -0.1311,0.3659l-3.7002 12.1023c-0.6164,1.8432 -2.0966,3.5797 -3.8616,4.5306 -0.0778,0.0417 -0.1559,0.072 -0.2336,0.1109 -0.7449,0.3641 -1.4864,0.5645 -2.1593,0.5645 -0.7943,0 -1.4102,-0.2728 -1.7823,-0.7888 -0.5435,-0.7552 -0.6005,-1.9494 -0.1535,-3.2841l5.0118 -16.4909 -4.8235 0 -2.4073 0.0011zm4.9497 1.6851l0 0 -4.3274 14.2761c-0.6216,1.8558 -0.4829,3.6049 0.3785,4.8007 0.6923,0.9624 1.8118,1.4915 3.1528,1.4915 3.1521,0 6.6719,-2.8546 7.8461,-6.3635l3.7258 -12.1422c0.3431,-1.1331 1.5464,-2.0563 2.6818,-2.0579l4.9491 -0.0051 -0.6959 2.2816c2.9891,-2.2731 6.741,-3.1329 9.8772,-2.2446 2.2087,0.6258 3.8243,2.0339 4.5696,3.9725 4.8559,-4.1624 10.1635,-5.4343 13.5554,-3.2376 2.8174,1.8255 3.6518,5.7151 2.23,10.4045l-1.3737 4.4903c-0.4705,1.5332 -0.4093,2.7634 0.1783,3.5579 0.4442,0.601 1.1865,0.9322 2.0898,0.9322 3.5612,0 7.5756,-2.9129 8.5912,-6.2335l3.5832 -11.8643c0.3434,-1.1336 1.5461,-2.0567 2.6816,-2.0573l4.9466 0 -4.7551 15.6528c-0.3741,1.2241 -0.2427,2.356 0.3726,3.1853 0.6284,0.8489 1.7229,1.317 3.0804,1.317l5.7256 0 -1.6192 5.4162 -5.8716 0c-3.3392,-0.0218 -6.1245,-1.3205 -7.6691,-3.5683 -2.1862,1.6623 -5.7286,3.6037 -10.342,3.6037 -2.9372,0 -5.3471,-1.0613 -6.7834,-2.9889 -1.5346,-2.0573 -1.8531,-4.956 -0.9003,-8.1608l1.3093 -4.1985c0.6474,-1.9335 0.4692,-3.4975 -0.5055,-4.4069 -0.9966,-0.9322 -2.7604,-1.0726 -4.4893,-0.3572 -2.1056,0.8705 -4.1137,3.0915 -4.666,5.1671l-4.1768 13.7162 -7.0091 0.0067 4.4319 -14.5693c0.5538,-1.7917 0.3294,-3.2617 -0.6325,-4.1386 -0.959,-0.8741 -2.4929,-0.9978 -4.1033,-0.3322 -2.2011,0.9098 -4.2561,3.0779 -4.7801,5.0427l-0.0949 0.3574 -0.0146 -0.04 -4.1638 13.6739 -7.0092 0.0073 0.3202 -1.0526c-3.6032,1.7416 -6.9506,2.4576 -9.6972,2.071 -2.5512,-0.359 -4.5484,-1.64 -5.7822,-3.7052 -3.0689,2.7297 -6.6358,4.182 -9.8666,4.182 -1.6962,0 -3.2997,-0.3998 -4.6901,-1.2245 -1.3603,-0.8061 -2.4147,-1.9533 -3.1343,-3.4114 -2.9458,2.4015 -6.6174,3.771 -10.1096,3.7716l-0.0852 0c-3.2257,-0.0207 -5.9743,-1.2532 -7.5395,-3.3823 -1.4459,-1.9677 -1.7924,-4.5234 -0.9757,-7.1959l3.7807 -12.3746c0.3424,-1.1325 1.546,-2.0567 2.6818,-2.0573l4.947 0 -4.5811 15.0935c-0.3745,1.2245 -0.2419,2.3558 0.3711,3.1852 0.6285,0.849 1.7227,1.3165 3.0824,1.3165 2.6219,0 5.6723,-1.6434 7.4299,-3.9992 0.189,-2.6996 1.1733,-5.4732 2.8452,-8.0242 2.0836,-3.1778 5.0227,-5.6821 8.2788,-7.0499 3.2834,-1.3797 6.5171,-1.4429 9.1058,-0.1792 0.7742,0.3767 1.4831,0.8745 2.1006,1.4739 0.4305,-1.0309 1.5357,-1.8164 2.5945,-1.8181l4.9497 -0.0058zm-42.3631 -8.7525l0 0c0.0021,1.8432 0.928,3.5626 2.466,4.5793 1.5372,1.016 3.4821,1.1947 5.1792,0.4749 0.0364,-0.0149 0.0672,-0.0377 0.1045,-0.0536 1.9682,-0.8842 3.2353,-2.8418 3.2365,-5 -0.0034,-3.0316 -2.461,-5.4892 -5.4927,-5.4926 -1.2866,0.0018 -2.5321,0.4538 -3.5197,1.2781 -0.3642,0.307 -0.6879,0.6609 -0.9607,1.0508 -0.6576,0.9238 -1.0116,2.0294 -1.0131,3.1631zm5.4926 -3.8024l0 0c2.0988,0.0029 3.7995,1.7035 3.8021,3.8024 0,2.0967 -1.7063,3.8028 -3.8021,3.8028 -2.0962,0 -3.8031,-1.7061 -3.8031,-3.8028 0.003,-2.0989 1.704,-3.7995 3.8031,-3.8024z"/>
   <path class="fil5" d="M187.1551 146.2457c-0.0028,-2.099 -1.7024,-3.8 -3.8023,-3.803 -2.097,0 -3.8024,1.7063 -3.8024,3.803 0,2.0966 1.7054,3.8029 3.8024,3.8029 2.0999,-0.0028 3.7995,-1.704 3.8023,-3.8029zm-108.6171 3.8074l0 0c2.0988,-0.0027 3.7995,-1.7039 3.8021,-3.8028 0,-2.0961 -1.7063,-3.8024 -3.8021,-3.8024 -2.0962,0 -3.8031,1.7063 -3.8031,3.8024 0.003,2.0989 1.704,3.8001 3.8031,3.8028zm31.9226 4.9544l0 0c-1.06,0.0016 -2.1641,0.7871 -2.5945,1.8181 -0.6176,-0.5995 -1.3266,-1.0973 -2.1,-1.4734 -2.5899,-1.2631 -5.8243,-1.1999 -9.1066,0.1793 -3.2553,1.3677 -6.1951,3.8714 -8.2786,7.0492 -1.6719,2.5516 -2.6556,5.3253 -2.8453,8.0248 -1.7575,2.3558 -4.8081,3.9992 -7.4299,3.9992 -1.359,0 -2.454,-0.4681 -3.0824,-1.317 -0.6141,-0.8299 -0.7461,-1.9613 -0.371,-3.1851l4.5809 -15.0937 -4.9468 0c-1.1361,0.0018 -2.3393,0.9248 -2.6818,2.0579l-3.7807 12.3746c-0.8174,2.6727 -0.4704,5.2282 0.9755,7.1959 1.5652,2.1287 4.3127,3.3617 7.5397,3.3823l0.0852 0c3.4922,0 7.1638,-1.3706 10.1093,-3.7715 0.7199,1.4574 1.7731,2.6047 3.1346,3.4107 1.3916,0.8249 2.994,1.2251 4.6898,1.2251 3.2312,0 6.7981,-1.4529 9.8668,-4.1825 1.2343,2.0663 3.2299,3.3467 5.782,3.7057 2.747,0.3866 6.0955,-0.3294 9.6975,-2.071l-0.3205 1.052 7.0094 -0.0067 4.1637 -13.6745 0.0148 0.04 0.0948 -0.3568c0.524,-1.9648 2.579,-4.1335 4.7802,-5.0427 1.6104,-0.6662 3.1442,-0.5417 4.1031,0.3322 0.9613,0.8762 1.1861,2.3456 0.6324,4.138l-4.4319 14.5701 7.0094 -0.0075 4.1764 -13.7162c0.5525,-2.0755 2.5602,-4.2966 4.6662,-5.1671 1.7301,-0.7148 3.4925,-0.5749 4.4892,0.3573 0.9746,0.9099 1.1544,2.4734 0.5056,4.4075l-1.308 4.1979c-0.9542,3.2059 -0.6356,6.1034 0.8987,8.1613 1.4366,1.9271 3.8463,2.9889 6.7836,2.9889 4.6135,0 8.1557,-1.9419 10.3419,-3.6043 1.5447,2.248 4.3315,3.5465 7.6691,3.5683l5.8731 0 1.6178 -5.4162 -5.7242 0c-1.359,0 -2.4535,-0.4675 -3.0819,-1.3164 -0.6138,-0.8293 -0.7467,-1.9612 -0.3711,-3.1851l4.7537 -15.6536 -4.9467 0c-1.1355,0.0012 -2.3381,0.9243 -2.6815,2.0579l-3.5832 11.8637c-1.0158,3.3206 -5.0299,6.2335 -8.5913,6.2335 -0.903,0 -1.6453,-0.331 -2.0898,-0.9316 -0.5873,-0.7946 -0.6487,-2.0247 -0.1782,-3.5585l1.3736 -4.4902c1.4219,-4.6895 0.5874,-8.5786 -2.2301,-10.4041 -3.3917,-2.1977 -8.6994,-0.9247 -13.5554,3.2378 -0.7437,-1.9396 -2.3605,-3.3468 -4.5691,-3.9724 -3.1362,-0.8894 -6.8882,-0.0287 -9.8766,2.2438l0.6953 -2.2816 -4.9491 0.0052c-1.1355,0.0022 -2.3387,0.9253 -2.6818,2.0578l-3.7259 12.1422c-1.1742,3.5094 -4.6939,6.3643 -7.846,6.3643 -1.3409,0 -2.4605,-0.5303 -3.1529,-1.4917 -0.8615,-1.1964 -1.0001,-2.9449 -0.3785,-4.8013l4.3275 -14.2753 -4.9497 0.0051zm-6.5748 14.8348l0 0c-0.1937,0.3152 -0.3866,0.6052 -0.5893,0.8842 -2.5944,3.5843 -6.632,5.4812 -9.1919,4.3201 -0.8552,-0.3882 -1.5008,-1.1096 -1.8667,-2.0871 -0.6165,-1.6479 -0.3962,-3.853 0.6063,-6.049 1.8494,-4.053 5.6398,-6.9682 8.7775,-6.9682 0.401,0 0.7918,0.0473 1.1664,0.1461 1.7354,0.459 2.7731,1.9169 2.8508,4.001l-1.7529 5.7528z"/>
   <path class="fil4" d="M40.6566 156.2472l0.2231 -0.3013c1.9803,-2.675 4.6901,-6.3375 7.2577,-9.6763l0.0463 -0.0571c4.6209,-5.4954 7.5641,-8.1949 11.2739,-10.3177 1.9313,-1.0778 4.0028,-1.8821 6.156,-2.3885l-0.5618 0.0633c-0.0166,0.0017 -0.436,0.0526 -2.3022,0.5515 -1.9694,0.5378 -3.8667,1.3113 -5.6513,2.3034l-0.0017 0.0004c-0.4948,0.2832 -0.9767,0.5761 -1.45,0.8831 -3.2513,2.1059 -6.1226,4.8795 -10.3041,9.8482 -0.0253,0.0297 -0.0492,0.0604 -0.0737,0.0913l-5.0845 6.7575 0.4722 2.2423zm-21.0513 26.8665l0 0c-2.0133,1.6857 -5.2563,2.9192 -9.3605,3.5031 -2.0213,0.2871 -4.1905,0.4989 -5.6884,0.5042 1.2856,-1.0071 2.8718,-2.3914 4.2608,-4.025 1.0122,-1.1079 2.262,-2.8731 3.1582,-5.4686 0.6532,-1.8934 9.8036,-31.5335 10.8442,-34.9072l0.0405 -0.129c0.1319,-0.4429 0.2427,-0.8495 0.3381,-1.2404 0.0672,-0.2745 0.1202,-0.5218 0.1679,-0.7558 0.3052,-1.5281 0.2687,-2.2417 0.2687,-2.2908 0.0194,-1.099 -0.1394,-2.0648 -0.4161,-2.8377 -0.064,-0.1787 -0.1429,-0.3848 -0.2445,-0.5457l-0.0484 -0.0783 -0.0006 0.0006 -0.0018 -0.0051 -1.6258 1.6297 0.0457 0.0806c0.0954,0.1649 0.1615,0.3767 0.2142,0.5605 0.3446,1.1965 0.266,2.7613 -0.2565,4.7243l-11.0526 35.5363c-1.8951,5.904 -9.5758,10.6507 -9.6533,10.698l-0.5954 0.3631 0.6947 0.0662c0.0206,0.0016 1.1629,0.1073 2.9056,0.1073 1.5121,0 3.477,-0.08 5.5538,-0.375 5.9503,-0.8466 9.977,-3.0005 12.0422,-6.4424 0.2764,-0.4464 0.8112,-1.349 1.18,-2.0037 -0.4596,0.7375 -0.982,1.435 -1.5607,2.083 -0.2439,0.2711 -0.6291,0.7209 -1.2102,1.2479zm24.1213 -0.2278l0 0 7.2073 -23.2581 -2.9876 4.0118 -0.4625 1.491 -0.0006 0.0006 -5.9703 19.2423 -0.0913 0.2905 14.6106 0 1.7051 -1.7006 -0.0698 -0.0444 -0.0256 0.0325 -0.2929 -0.0372 0.0298 -0.0291 -13.6521 0.0006zm-13.8187 -25.0716l0 0 -1.0214 3.3348 4.4857 21.1996 1.4814 -1.1257 -4.9457 -23.4087z"/>
   <path class="fil1" d="M73.2925 135.9689c1.3756,-1.262 2.0989,-1.8181 3.5289,-2.9878 0,0 -1.5339,-0.198 -5.089,-0.2042 -1.5498,0 -3.7087,0.1506 -6.12,0.73 -2.1525,0.5063 -4.2246,1.3105 -6.156,2.3889 -3.7096,2.123 -6.6529,4.8225 -11.2733,10.3179l-0.0469 0.0571c-2.5669,3.3376 -5.2786,7.0013 -7.2577,9.6756l-0.2231 0.302 -0.4719 -2.2417 -4.0349 -19.1715 -13.2273 0.0034 0.0022 0.0057 0.0006 -0.0012 0.0485 0.0788c0.1017,0.1604 0.1799,0.3671 0.2444,0.5452 0.2772,0.7723 0.4354,1.7393 0.4162,2.8382 0,0.0491 0.0367,0.7622 -0.2688,2.2903 -0.0508,0.254 -0.1063,0.5056 -0.1679,0.7562 -0.0954,0.3911 -0.206,0.7975 -0.3386,1.24l-0.0398 0.1294c-1.0408,3.3737 -10.1918,33.0143 -10.8442,34.9068 -0.896,2.5972 -2.1463,4.3617 -3.1584,5.4686 -1.3895,1.6331 -2.9751,3.0185 -4.2607,4.0254 1.4978,-0.0057 3.6677,-0.2168 5.6878,-0.5046 4.1037,-0.5839 7.3478,-1.8175 9.361,-3.5027 0.5811,-0.5268 0.9665,-0.9766 1.2104,-1.2473 0.5775,-0.6489 1.0999,-1.346 1.5605,-2.0824 1.6748,-2.6487 2.5065,-5.4936 2.8235,-6.5845l3.6875 -12.0504 1.0206 -3.3353 4.9453 23.4087 13.0933 -17.5828 2.9878 -4.0118 -7.2074 23.2581 13.652 -0.0012 0.3586 0c-0.2677,-0.9076 -0.4436,-1.5453 -0.5938,-2.2412 -0.1764,-1.0252 -0.1639,-1.4247 -0.0355,-2.3884 0.0811,-0.6096 0.2565,-1.2746 0.5099,-2.1457l9.1669 -29.4756c0.0399,-0.1285 0.0863,-0.2467 0.1273,-0.374 1.4689,-4.5074 3.6067,-7.8855 6.382,-10.2922zm-8.1281 10.1597l0 0 -9.1676 29.4786c-0.2814,0.9669 -0.476,1.7102 -0.5703,2.4236 -0.1599,1.2005 -0.1325,2.1584 0.0873,3.0151l0.0378 0.145 -9.5245 0 0.0461 -0.1513 9.4085 -30.3581 -19.7456 26.5152 -5.5274 -26.1637 -6.6355 21.6826c-0.3773,1.2988 -1.5276,5.2536 -4.0186,8.0164 -0.7787,0.8643 -3.1472,3.4941 -9.8635,4.1945l-0.3289 0.0342 0.2354 -0.2323c1.1935,-1.1826 2.8529,-3.2788 3.9809,-6.5519 0.6867,-1.9895 10.8002,-34.76 10.9024,-35.0901 0.3849,-1.2934 0.6029,-2.278 0.753,-3.3975 0.1569,-1.1838 0.1285,-2.1702 -0.0885,-3.0156l-0.0378 -0.1445 9.6654 -0.0028 4.9862 23.7411c0,0 7.1777,-9.6688 9.7146,-12.9666 4.4775,-5.3247 7.31,-7.9243 10.8281,-9.9371 4.2791,-2.3918 8.5781,-2.8934 11.4323,-2.8934 0.1301,0 0.2596,0.0022 0.388,0.0045l0.3038 0.0081 -0.2313 0.1962c-3.1629,2.6915 -5.4617,6.4355 -7.0303,11.4498z"/>
   <path class="fil5" d="M72.1204 134.4757c-0.1293,-0.0035 -0.2591,-0.0047 -0.388,-0.0047 -2.8529,0 -7.1526,0.5018 -11.4322,2.893 -3.5182,2.0135 -6.3504,4.613 -10.8282,9.9377 -2.5379,3.2978 -9.7146,12.9666 -9.7146,12.9666l-4.9862 -23.7412 -9.6653 0.0022 0.0379 0.1451c0.2168,0.8455 0.2453,1.8319 0.0883,3.0151 -0.15,1.1193 -0.368,2.1035 -0.7528,3.3975 -0.1018,0.3306 -10.2159,33.1 -10.9026,35.0899 -1.1289,3.2739 -2.7885,5.37 -3.9809,6.5527l-0.2351 0.2318 0.3287 -0.0337c6.7166,-0.7016 9.085,-3.3308 9.8634,-4.1951 2.4913,-2.763 3.6408,-6.7165 4.0188,-8.0163l6.6353 -21.6827 5.5274 26.1643 19.7451 -26.5158 -9.4077 30.3587 -0.0464 0.1507 9.524 0 -0.0373 -0.1444c-0.221,-0.8568 -0.2483,-1.8147 -0.0878,-3.0157 0.0948,-0.7131 0.2893,-1.4567 0.5707,-2.4238l9.1676 -29.4778c1.5675,-5.0143 3.8674,-8.7596 7.0282,-11.4481l0.2311 -0.1963 -0.3015 -0.0097z"/>
   <path class="fil4" d="M52.2601 102.6446c0.1685,3.7264 0.7222,7.4255 1.6513,11.0384 -0.9955,-12.9887 1.2668,-23.9283 5.9401,-32.9258 -1.2409,-0.0189 -2.4643,-0.0279 -3.6619,-0.0252 -2.9488,6.8363 -4.2715,14.2007 -3.9295,21.9126zm59.9878 -53.6532l0 0c-0.351,0.0073 -0.7026,0.0117 -1.0509,0.0234 -15.3703,0.4779 -29.607,4.628 -39.8122,12.333 -1.6279,1.229 -3.1817,2.5532 -4.6535,3.9661 -1.7837,1.7817 -3.4337,3.6933 -4.9349,5.7192 1.8147,-0.3054 3.5969,-0.5686 5.3437,-0.7963 10.779,-12.0141 27.0432,-18.9467 45.1079,-21.2454z"/>
   <path class="fil2" d="M48.2703 80.8965c3.8585,-0.1501 7.7202,-0.1964 11.5812,-0.1387 5.032,0.0758 10.3943,0.3334 15.9681,0.8637 2.5403,-1.9352 5.2015,-3.7052 7.967,-5.3007 -16.5268,-0.7217 -38.7459,0.1061 -59.9463,7.0035 0.5424,-0.1044 9.1014,-1.6759 21.984,-2.3199 0.8152,-0.0398 1.6304,-0.0764 2.446,-0.1078z"/>
   <path class="fil5" d="M192.6716 182.9583l-0.0087 0 -0.3917 -1.2284 -0.5992 0 0 1.8792 0.3448 0 0 -1.4967 0.0089 0 0.4749 1.495 0.3304 0 0.491 -1.495 0.0073 0 0 1.495 0.3462 0 0 -1.8775 -0.5946 0 -0.4093 1.2284zm-2.6743 -0.8927l0 0 0.5085 0 0 1.5436 0.3449 0 0 -1.5436 0.5129 0 0 -0.3357 -1.3664 0 0 0.3357z"/>
  </g>
 </g>
</svg>
